<?xml version="1.0" encoding="UTF-8" standalone="no"?>
<!DOCTYPE svg PUBLIC "-//W3C//DTD SVG 1.1//EN" "http://www.w3.org/Graphics/SVG/1.1/DTD/svg11.dtd">
<svg width="100%" height="100%" viewBox="0 0 800 800" version="1.1" xmlns="http://www.w3.org/2000/svg" xmlns:xlink="http://www.w3.org/1999/xlink" xml:space="preserve" xmlns:serif="http://www.serif.com/" style="fill-rule:evenodd;clip-rule:evenodd;stroke-linecap:round;stroke-linejoin:round;stroke-miterlimit:1.5;">
    <g>
        <g>
            <path d="M399.998,339.8C366.803,339.8 339.798,366.806 339.798,400C339.798,433.194 366.806,460.2 399.998,460.2C433.194,460.2 460.198,433.194 460.198,400C460.198,366.806 433.194,339.8 399.998,339.8ZM399.998,433.723C381.405,433.723 366.278,418.597 366.278,400.003C366.278,381.409 381.406,366.283 399.998,366.283C418.592,366.283 433.719,381.409 433.719,400.003C433.72,418.595 418.594,433.723 399.998,433.723Z" style="fill-rule:nonzero;"/>
        </g>
        
    </g>
    <path d="M786.761,386.761L740.781,386.761C733.967,209.208 590.794,66.034 413.241,59.22L413.241,13.241C413.241,5.928 407.313,0 400,0C392.688,0 386.761,5.928 386.761,13.241L386.761,59.22C209.206,66.034 66.034,209.209 59.22,386.761L13.239,386.761C5.928,386.761 0,392.688 0,400C0,407.313 5.928,413.239 13.241,413.239L59.222,413.239C66.036,590.792 209.209,733.966 386.763,740.78L386.763,786.759C386.763,794.072 392.691,800 400.002,800C407.314,800 413.242,794.072 413.242,786.759L413.242,740.78C590.795,733.966 733.969,590.792 740.783,413.239L786.763,413.239C794.075,413.239 800.002,407.311 800.002,399.998C800,392.688 794.072,386.761 786.761,386.761ZM668.881,413.239L714.281,413.239C707.5,576.191 576.188,707.5 413.239,714.283L413.239,668.883C413.239,661.569 407.311,655.644 400,655.644C392.688,655.644 386.761,661.57 386.761,668.883L386.761,714.283C223.811,707.5 92.498,576.188 85.716,413.239L131.116,413.239C138.428,413.239 144.356,407.311 144.356,400C144.356,392.688 138.43,386.761 131.116,386.761L85.716,386.761C92.498,223.809 223.811,92.5 386.759,85.717L386.759,131.117C386.759,138.431 392.688,144.358 399.998,144.358C407.311,144.358 413.238,138.431 413.238,131.117L413.238,85.717C576.189,92.5 707.5,223.813 714.283,386.761L668.883,386.761C661.57,386.761 655.644,392.689 655.644,400C655.642,407.313 661.57,413.239 668.881,413.239Z" style="fill-rule:nonzero;"/>
</svg>
